/* XPM */
static char * close_xpm[] = {
"20 20 24 1",
" 	c None",
".	c #FEFEFE",
"+	c #FFFFFF",
"@	c #F2F2F2",
"#	c #CCCCCC",
"$	c #CECECE",
"%	c #F7F7F7",
"&	c #3E3E3E",
"*	c #434343",
"=	c #DCDCDC",
"-	c #323232",
";	c #9A9A9A",
">	c #DEDEDE",
",	c #FCFCFC",
"'	c #313131",
")	c #474747",
"!	c #FDFDFD",
"~	c #DDDDDD",
"{	c #333333",
"]	c #A3A3A3",
"^	c #DBDBDB",
"/	c #505050",
"(	c #262626",
"_	c #000000",
".++++.++++++++.++++.",
"+@#$%++++++++++%$#@+",
"+#&*=++.++++.++=*&#+",
"+$*-;>,++..++,>;-*$+",
"+%=;')>++!!++>)';=%+",
".++>)';>,++,>;')>++.",
"+++,>;')~++~)';>,+++",
"++.++>){]^^]{)>++.++",
"+++++,~]/((/]~,+++++",
"+++.!++^(__(^++!.+++",
"+++.!++^(__(^++!.+++",
"+++++,~]/((/]~,+++++",
"++.++>){]^^]{)>++.++",
"+++,>;')~++~)';>,+++",
".++>)';>,++,>;')>++.",
"+%=;')>++!!++>)';=%+",
"+$*-;>,++..++,>;-*$+",
"+#&*=++.++++.++=*&#+",
"+@#$%++++++++++%$#@+",
".++++.++++++++.++++."};
