/* XPM */
static char * maximize_xpm[] = {
"20 20 17 1",
" 	c None",
".	c #FEFEFE",
"+	c #FFFFFF",
"@	c #F5F5F5",
"#	c #D6D6D6",
"$	c #C6C6C6",
"%	c #C5C5C5",
"&	c #5E5E5E",
"*	c #222222",
"=	c #212121",
"-	c #000000",
";	c #111111",
">	c #262626",
",	c #232323",
"'	c #969696",
")	c #D4D4D4",
"!	c #CACACA",
".++++++++++++++++++.",
"+@#$%%%%%%%%%%%%$#@+",
"+#&*===******===*&#+",
"+$*-;>,******,>;-*$+",
"+%=;')!%%%%%%!)';=%+",
"+%=>)++++++++++)>=%+",
"+%=,!++++++++++!,=%+",
"+%**%++++++++++%**%+",
"+%**%++++++++++%**%+",
"+%**%++++++++++%**%+",
"+%**%++++++++++%**%+",
"+%**%++++++++++%**%+",
"+%**%++++++++++%**%+",
"+%=,!++++++++++!,=%+",
"+%=>)++++++++++)>=%+",
"+%=;')!%%%%%%!)';=%+",
"+$*-;>,******,>;-*$+",
"+#&*===******===*&#+",
"+@#$%%%%%%%%%%%%$#@+",
".++++++++++++++++++."};
