/* XPM */
static char * minimize_xpm[] = {
"20 20 13 1",
" 	c None",
".	c #FFFFFF",
"+	c #FEFEFE",
"@	c #F3F3F3",
"#	c #D1D1D1",
"$	c #C1C1C1",
"%	c #C4C4C4",
"&	c #C5C5C5",
"*	c #D2D2D2",
"=	c #4F4F4F",
"-	c #121212",
";	c #1D1D1D",
">	c #222222",
"....................",
"....................",
"....................",
"....................",
"....................",
"....................",
"....................",
"....................",
"....................",
"....................",
"+..................+",
".@#$%&&&&&&&&&&%$#@.",
".*=-;>>>>>>>>>>;-=*.",
".*=-;>>>>>>>>>>;-=*.",
".@#$%&&&&&&&&&&%$#@.",
"+..................+",
"....................",
"....................",
"....................",
"...................."};
