/* XPM */
static char * unmaximize_xpm[] = {
"20 20 3 1",
" 	c None",
".	c #FFFFFF",
"+	c #000000",
"....................",
".........+++++++++..",
".........+.......+..",
"...++++++++++++..+..",
"...+.....+....+..+..",
"...+.....+....+..+..",
"...+.....+....+..+..",
"...+.....+....+..+..",
"...+.....+....+..+..",
"...+.....+....+..+..",
"...+.....+++++++++..",
"...+..........+.....",
"...+..........+.....",
"...+..........+.....",
"...+..........+.....",
"...+..........+.....",
"...++++++++++++.....",
"....................",
"....................",
"...................."};
